# xmcd CD database file
#
# Track frame offsets:
#	150
#	24494
#	41929
#	58763
#	75285
#	97695
#	117669
#	136266
#	152576
#	164608
#	179118
#	193515
#	196225
#	211034
#	215389
#	231466
#	253058
#	275230
#	288505
#	303914
#
# Disc length: 4212 seconds
#
# Revision: 0
# Processed by: cddbd v1.5.1PL0 Copyright (c) Steve Scherf et al.
# Submitted via: CDex 1.51
#
DISCID=27107214
DTITLE=Titas - Coletania 84 a 94
DYEAR=2004
DGENRE=Rock Brasil
TTITLE0=Comida
TTITLE1=Go back
TTITLE2=Pra dizer adeus
TTITLE3=Familia
TTITLE4=Os cegos do castelo
TTITLE5=Marvin
TTITLE6=Nem cinco minhtos guardados
TTITLE7=Flores
TTITLE8=Palavras
TTITLE9=A melhor forma
TTITLE10=Nao vou lutar
TTITLE11=Homem primata-vinheta
TTITLE12=Homem primata
TTITLE13=Policia-vinheta
TTITLE14=Querem meu sangue
TTITLE15=Diversao
TTITLE16=Televisao
TTITLE17=Sonifera ilha
TTITLE18=Toda cor
TTITLE19=Nao vou me adaptar
EXTD=YEAR: 2004
EXTT0=
EXTT1=
EXTT2=
EXTT3=
EXTT4=
EXTT5=
EXTT6=
EXTT7=
EXTT8=
EXTT9=
EXTT10=
EXTT11=
EXTT12=
EXTT13=
EXTT14=
EXTT15=
EXTT16=
EXTT17=
EXTT18=
EXTT19=
PLAYORDER=
